<?xml version="1.0" encoding="utf-8"?>
<!-- Generator: Adobe Illustrator 27.5.0, SVG Export Plug-In . SVG Version: 6.00 Build 0)  -->
<svg version="1.1" xmlns="http://www.w3.org/2000/svg" xmlns:xlink="http://www.w3.org/1999/xlink" x="0px" y="0px"
	 viewBox="0 0 500 500" style="enable-background:new 0 0 500 500;" xml:space="preserve">
<g id="BACKGROUND">
</g>
<g id="OBJECTS">
	<g>
		<path style="fill:#586568;" d="M137.168,348.753c2.93-1.878,6.272-3.012,9.487-4.307c7.249-2.944,14.224-6.662,21.693-9.02
			c2.578-0.963,6.852-0.174,6.414,3.323c-0.344,1.693-1.471,3.119-2.406,4.535c-6.226,8.366-17.455,16.531-28.169,16.826
			c-0.104,0.004-0.209,0.007-0.314,0.007C138.295,360.117,130.993,353.334,137.168,348.753z"/>
		<path style="fill:#586568;" d="M189.174,350.295c-1.684-0.276-3.146-1.427-3.917-2.93c-0.62-1.345-0.384-2.897,0.055-4.26
			c1.065-3.118,3.835-5.17,6.353-7.097c4.261-3.192,8.625-6.244,12.887-9.436c2.816-2.068,5.65-4.276,9.005-5.39
			c2.286-0.779,4.896-0.128,5.68,2.372c0.644,2.036-0.195,4.504-0.696,6.516c-2.348,8.169-5.034,11.626-12.573,15.626
			c-4.292,2.211-9.825,4.726-14.879,4.727C190.44,350.424,189.802,350.383,189.174,350.295z"/>
		<path style="fill:#586568;" d="M147.768,326.6c2.03-4.381,6.545-7.059,10.156-10.065c5.461-4.15,11.051-8.13,16.696-12.026
			c1.772-1.158,3.56-2.542,5.721-2.806c4.099-0.621,6.578,3.809,5.715,7.426c-0.799,4.684-3.939,8.615-7.185,11.923
			c-6.376,6.164-15.088,10.334-24.051,10.279c-0.2,0.007-0.41,0.011-0.626,0.011C151.145,331.342,146.77,330.526,147.768,326.6z"/>
		<path style="fill:#586568;" d="M186.197,331.299c-2.775-0.121-4.005-2.95-2.724-5.282c0.549-1.097,1.329-2.076,2.156-2.977
			c3.922-4.193,8.341-7.891,12.71-11.606c4.198-3.517,8.341-7.108,12.68-10.451c0.969-0.689,1.929-1.442,3.087-1.784
			c1.535-0.439,3.184,0.44,3.707,1.94c0.544,1.46,0.187,3.096-0.361,4.499c-1.575,3.76-4.077,7.079-6.696,10.17
			c-3.037,4.042-7.013,7.314-11.274,9.999c-3.246,2-9.519,5.49-13.269,5.49C186.207,331.299,186.202,331.299,186.197,331.299z"/>
	</g>
	<path style="fill:#586568;" d="M352.301,220.189c5.27,7.868-3.131,23.481-3.955,32.894c-1.582,6.985-0.431,13.333,6.701,16.496
		c13.213,4.168,25.362-8.849,28.478-20.714c2.603-8.499,0.573-18.095,4.979-26.046c3.589-6.927,12.226-10.802,19.757-8.618
		c15.177,4.204,28.942,18.437,45.723,13.48c10.648-3.12,17.772-12.821,14.521-23.992c-2.163-8.297-7.9-14.939-11.376-22.645
		c-2.245-4.745-2.025-10.661,1.281-14.863c2.517-3.27,6.456-5.013,9.167-8.072c2.074-3.104-1.245-6.699-3.621-8.576
		c-6.686-5.015-15.609-4.976-23.577-4.227c-9.372,0.588-16.759,6.423-23.109,12.848c-19.507,19.659-33.901,25.691-60.373,14.795
		c-18.505-6.326-35.387,3.846-44.068,20.291c-3.406,6.102-9.123,18.457-1.764,23.417c11.259,0.99,25.303-7.302,35.602-1.656
		C348.71,216.121,350.604,217.789,352.301,220.189z M346.973,271.803c-10.188-8.857-4.049-23.464-1.464-34.472
		c-0.006,0.02-0.012,0.04-0.017,0.062c-0.028,0.106-0.057,0.211-0.086,0.317c0.93-4.096,2.714-8.279,2.144-12.53
		c-2.5-7.016-11.596-6.138-17.489-4.832c-13.344,3.175-28.712,7.81-28.857-11.932c0.265-7.343,3.446-14.184,7.249-20.341
		c7.187-12.563,19.729-22.587,34.595-23.276c13.513-1.553,25.287,8.1,38.816,6.336c12.501-1.062,21.092-10.907,29.862-18.756
		c5.229-4.48,10.975-8.497,17.462-10.917c14.683-5.309,41.436-5.149,45.441,13.79c0.841,12.944-20.038,11.289-9.792,26.848
		c6.052,9.975,13.303,21.366,10.028,33.508c-2.606,10.383-12.676,17.255-22.794,19.15c-8.235,1.317-16.465-1.069-23.965-4.348
		c-10.52-4.149-27.415-19.067-34.749-2.925c-2.59,8.102-1.261,17.019-4.231,25.103c-4.346,15.159-23.269,30.212-38.224,22.014
		C349.556,273.862,348.243,272.936,346.973,271.803z"/>
	<path style="fill:#586568;" d="M92.035,388.565c9.697,0.975,27.009-0.211,27.675-12.876c0.26-7.478-3.589-14.166-6.922-20.597
		c-4.144-7.91-8.091-15.959-10.871-24.464c-6.439-20.465-8.153-42.014-10.742-63.211c-1.316-9.916-4.136-29.809-12.368-35.869
		c-5.785-4.248-12.2-1.048-16.76,3.39c-7.942,7.757-11.936,18.46-15.679,28.679c-2.995,8.374-5.648,16.865-8.612,25.251
		c-3.414,9.705-7.598,19.112-11.55,28.605c-1.631,3.833-3.152,7.862-4.34,11.695c-1.495,5.298-2.221,10.741,0.288,15.799
		c3.375,6.789,9.868,11.449,16.665,14.444c13.092,5.578,26.835,9.564,40.62,13.037c6.772,1.598,25.142,6.355,23.868-5.612
		c-0.367-3.588-2.282-6.655-4.16-9.637c-1.418-2.237-2.682-4.563-4.015-6.85c-1.896-3.146-4.066-6.578-5.15-10.045
		c-2.033-6.244-3.667-12.632-4.42-19.167c-0.631-4.666-0.554-9.37-0.718-14.064c-0.594-11.997-1.059-23.454-2.721-35.273
		c-0.702-5.051-0.995-10.191-2.22-15.153c-1.128-4.171-4.414-8.787-9.231-8.289c-4.321,0.406-6.735,4.553-8.564,8.033
		c-7.663,14.492-12.924,30.064-18.054,45.475c-1.554,4.262-3.073,8.529-4.373,12.875c-1.598,3.915-2.851,7.954-3.344,12.169
		c-0.749,4.708,0.043,9.572,1.566,14.051c3.686,10.088,13.945,14.33,23.45,17.343c4.915,1.506,9.906,2.829,14.977,3.684
		c4.486,0.612,9.287-1.608,8.63-6.793c-0.243-2.59-1.826-4.754-2.614-7.182c-1.49-4.032-3.185-7.998-4.292-12.162
		c-3.104-11.871-2.433-24.241-3.362-36.371c-0.135-1.739-0.268-3.477-0.411-5.216c-0.252-2.592-0.235-5.279-1.12-7.757
		c-0.7-2.016-2.76-3.523-4.93-3.148c-4.478,0.879-5.649,6.632-7.142,10.259c-2.663,7.898-5.322,15.803-8.968,23.314
		c-1.068,2.423-2.147,4.844-3.042,7.335c-0.813,2.206-1.459,4.521-1.326,6.893c0.232,3.093,1.467,6.144,3.468,8.516
		c2.54,2.824,5.625,5.213,9.179,6.583c6.633,2.795,7.997-1.837,6.898-7.491c-0.034-3.631-0.585-7.235-0.501-10.869
		c-0.042-2.248,0.143-4.499-0.011-6.746c-0.137-1.774-0.442-3.535-0.519-5.317c-0.052-1.124-0.033-2.248,0.049-3.369
		c-0.035-0.901,0.559-3.069-0.526-3.408c-1.082-0.222-1.241,1.232-1.513,1.968c-0.373,1.402-0.548,2.741-0.864,4.058
		c-0.583,2.673-1.196,4.861-1.275,7.476c0.014,2.199,0.028,4.395,0.043,6.596c0.099,2.449-0.079,4.913,0.175,7.355
		c0.234,1.591,0.578,3.162,0.364,4.779c-1.83-1.526-3.844-2.897-5.477-4.661c-2.128-2.559-3.598-5.054-2.255-8.406
		c1.162-3.044,2.793-5.883,4.159-8.839c1.462-3.119,2.81-6.292,4.017-9.52c1.578-4.229,2.872-8.558,4.055-12.913
		c0.549-2.003,1.053-4.032,1.889-5.941c1.273,9.747,0.701,19.413,1.988,29.114c0.654,5.098,1.359,10.189,2.313,15.239
		c0.626,3.743,1.648,7.415,3.155,10.903c1.202,2.848,2.681,5.669,2.568,8.849c-6.678-1.067-13.224-3.065-19.646-5.175
		c-4.183-1.479-8.268-3.282-11.968-5.75c-3.675-2.449-6.733-5.701-7.057-10.311c-0.079-2.501,0.223-5.039,0.996-7.423
		c0.628-1.581,1.274-3.157,2.001-4.697c0.777-1.611,1.453-3.271,2.236-4.882c1.055-2.088,2.214-4.117,3.106-6.286
		c5.255-14.111,9.309-28.688,15.757-42.34c1.299-2.884,2.653-5.751,4.057-8.586c0.774-1.418,1.406-3.001,2.609-4.114
		c2.858,2.025,4.424,12.504,4.931,16.146c0.692,6.848,1.354,13.706,1.748,20.577c0.217,5.51,0.466,11.02,1.041,16.505
		c0.408,3.547,1.088,7.054,1.622,10.583c1.291,7.424,2.399,14.931,4.706,22.125c1.014,2.942,2.073,5.869,3.119,8.796
		c2.11,5.803,6.224,10.77,7.783,16.776c-1.521,0.301-3.085,0.221-4.622,0.122c-7.632-0.952-15.066-3.094-22.455-5.222
		c-1.102-0.317-2.202-0.633-3.302-0.946c-8.746-2.676-17.549-5.379-25.84-9.281c-4.084-2.047-7.912-4.818-10.507-8.63
		c-3.38-4.977-2.563-11.429-0.766-16.846c4.584-12.987,10.008-25.652,15.435-38.303c3.858-9.312,7.445-18.732,11.435-27.991
		c3.153-7.29,6.407-14.937,12.425-20.354c1.152-0.978,1.792-1.448,2.972-2.067c0.731-0.336,1.531-0.642,2.344-0.502
		c3.325,1.029,4.993,6.856,6.136,9.853c3.31,10.236,4.312,21.007,5.516,31.645c1.711,14.474,3.464,29.001,6.771,43.213
		c1.685,7.231,3.968,14.318,6.882,21.146c3.698,9.057,9.091,17.328,12.67,26.425c0.735,2.813,2.223,7.374-0.81,9.228
		c-1.772,1.194-3.854,1.756-5.929,2.158c-4.892,0.866-9.951,1.017-14.817-0.084c-13.548-2.97-26.56-7.912-39.696-12.278
		c-7.999-2.707-16.092-5.257-23.69-8.988c-1.941-0.962-3.769-1.895-5.687-2.877c-0.802-0.311-2.541-1.776-3.24-1.25
		c-0.305,0.272-0.021,0.724,0.17,0.976c4.383,4.062,9.743,6.972,14.92,9.91c15.642,8.56,32.318,15.225,49.419,20.24
		C85.252,387.219,88.612,388.085,92.035,388.565z"/>
	<path style="fill:#F1E3AF;" d="M424.704,364.86c-16.762-0.651-29.789-9.213-37.316-24.178c-6.819-13.885-4.792-30.272-0.611-44.646
		c1.479-4.691,3.652-9.152,6.186-13.358c7.525-11.468,19.351-22.887,32.671-26.996c8.091-2.253,16.818-3.118,25.059-1.183
		c4.584,1.092,8.581,3.93,11.674,7.436c3.739,3.548,6.628,8.263,8.07,12.768c0.864,2.203,2.426,11.889-2.21,9.874
		c-1.606-1.387-3.036-3.047-4.07-4.909c-0.631-1.349-1.281-2.643-1.987-3.949c-0.44-0.959-0.872-1.916-1.411-2.826
		c-1.68-3.177-3.911-5.965-6.515-8.399c-0.686-0.663-1.411-1.28-2.173-1.845c-2.008-1.081-4.271-1.517-6.517-1.804
		c-4.133-0.511-8.306-0.22-12.412,0.391c-8.951,1.285-17.36,5.28-24.586,10.638c-3.69,2.977-6.802,6.156-9.723,9.793
		c-2.777,3.684-4.946,7.776-6.679,12.044c-3.637,8.654-5.331,18.06-5.207,27.436c0.032,7.594,2.26,15.223,7.011,21.218
		c1.8,2.222,3.883,4.203,6.12,5.981c3.675,2.607,7.613,4.789,11.714,6.628c8.862,3.416,19.286,3.608,28.406,1.094
		c4.607-1.268,8.862-3.521,12.624-6.454c3.594-2.7,6.538-6.07,8.717-10.003c4.48-7.859,6.163-20.797,4.95-29.721
		c-1.576-9.051-5.239-17.905-11.252-24.917c-4.327-5.215-10.118-9.547-16.939-10.634c-2.032-0.215-4.075-0.004-6.093,0.26
		c-3.559,0.479-7.029,1.556-10.12,3.405c-8.086,4.847-13.734,12.976-17.151,21.626c-3.45,8.521-5.705,20.122-2.261,28.918
		c1.011,2.424,2.579,4.555,4.133,6.654c1.406,1.836,3.053,3.47,4.862,4.908c3.021,2.176,6.663,3.46,10.326,4.03
		c3.681,0.384,7.361-0.292,11.011-0.718c4.594-0.589,8.913-2.337,12.997-4.463c5.387-3.309,8.531-9.517,9.231-15.682
		c0.386-9.656-1.54-21.283-9.743-27.432c-1.702-1.364-3.747-2.154-5.836-2.71c-3.977-1.117-8.29-1.164-12.12,0.512
		c-4.338,1.973-7.396,5.88-10.389,9.445c-3.342,4.285-5.405,8.63-5.325,14.17c0.107,4.001,1.449,7.948,3.875,11.138
		c1.787,2.251,3.852,4.403,6.574,5.482c3.633,1.508,7.855,1.298,11.515-0.014c3.752-1.802,6.95-4.928,8.575-8.787
		c0.955-2.362,1.327-4.959,0.895-7.48c-0.711-4.543-2.45-10.15-6.444-12.832c-3.226-1.706-7.289-1.318-10.43,0.405
		c-2.922,2.037-4.9,5.445-5.35,8.968c-0.207,1.718-0.187,3.6,0.967,5.002c1.522,1.595,3.562,2.894,5.757,3.268
		c2.926,0.214,6.105-2.393,5.345-5.487c-0.474-3.989-4.621-4.319-7.763-3.333c-0.62,0.195-1.695,0.732-1.736-0.353
		c0.14-1.854,2.055-3.225,3.569-4.044c3.794-1.772,8.555-0.887,11.019,2.629c1.568,2.119,1.769,4.928,1.3,7.451
		c-0.725,3.555-3.614,6.218-6.7,7.876c-6.477,3.531-15.641-1.476-17.37-8.348c-1.024-5.558,0.815-11.503,4.539-15.713
		c2.467-2.936,6.101-4.537,9.853-5.028c6.476-1.05,12.794,2.639,16.447,7.837c3.095,4.469,4.506,10.138,4.26,15.542
		c-0.551,6.959-4.696,13.342-10.527,17.085c-3.095,1.947-6.839,2.456-10.435,2.294c-5.198-0.294-10.547-2.552-13.873-6.649
		c-2.966-3.776-5.215-8.236-5.976-13.005c-1.288-6.357-0.111-13.001,2.178-18.994c1.384-3.098,3.418-5.889,5.581-8.487
		c2.456-2.651,5.233-5.158,8.566-6.639c6.988-3.053,15.381-1.874,21.913,1.794c3.036,1.913,5.707,4.423,7.779,7.359
		c3.187,4.472,4.954,9.805,5.896,15.177c1.161,6.01,0.539,12.233-1.304,18.042c-0.849,2.448-1.694,4.933-3.082,7.139
		c-2.806,4.38-7.07,7.74-11.812,9.814c-4.778,1.998-9.802,3.534-14.956,4.142c-8.756,0.729-18.335-0.755-25.118-6.741
		c-4.004-3.52-7.428-7.966-9.107-13.066c-3.62-9.173-2.514-19.44,0.223-28.704c1.656-5.048,3.757-9.985,6.51-14.537
		c5.614-8.861,13.867-16.785,24.33-19.239c4.754-0.967,9.767-1.59,14.52-0.307c11.446,2.781,18.858,10.983,24.398,20.892
		c6.992,11.701,8.996,24.656,6.828,38.038c-0.839,4.935-1.984,9.9-4.249,14.395c-1.61,3.094-3.483,6.072-5.775,8.709
		c-9.069,10.058-21.806,15.004-35.114,15.004C426.843,364.954,425.776,364.922,424.704,364.86z"/>
	<path style="fill:#F1E3AF;" d="M226.395,176.344c-12.092-2.335-19.979-14.928-17.911-26.87c1.321-8.721,5.892-16.45,10.418-23.86
		c5.484-8.751,2.909-13.209-6.976-14.748c-6.646-0.788-13.66,0.912-20.01-1.762c-10.198-4.113-11.191-18.037-5.843-26.429
		c5.451-8.959,15.685-14.637,26.097-15.118c2.77-0.668,8.04,0.405,13.675,1.545c9.933,2.011,20.998,4.23,21.497-2.505
		c-0.305-3.635-3.096-6.45-5.008-9.381c-2.614-3.611-5.37-7.198-7.006-11.386c-2.913-6.686-1.143-14.559,5.417-18.279
		c10.822-7.62,26.74-8.105,35.643,2.705c4.573,4.776,5.715,11.676,9.72,16.776c6.419,4.934,16.794-2.497,22.192-6.444
		c6.994-5.263,14.644-12.333,24.06-11.056c8.254,1.305,13.49,9.804,13.378,17.77c0.042,8.113-4.37,15.549-10.067,20.803
		c-9.259,8.149-21.828,10.238-33.018,14.54c-2.636,1.212-5.691,2.277-7.546,4.609c3.071,3.983,10.679,4.102,19.009,4.355
		c9.519,0.29,19.982,0.754,25.699,7.358c8.527,9.437,7.427,27.643-3.678,34.65c-14.789,8.57-32.259,1.322-46.092-5.697
		c-6.932-3.63-18.384-8.752-23.137,0.478c-3.973,8.513-2.421,18.903-5.062,27.709c-3.583,15.797-19.805,23.138-34.858,20.352
		C226.79,176.422,226.593,176.385,226.395,176.344z"/>
	<g>
		<path style="fill:#AFF0F1;" d="M196.983,216.13c-8.109-1.459-13.356-9.51-21.635-10.507c-9.743-1.293-16.949,7.519-26.355,8.271
			c-4.428,0.534-9.142-0.793-12.396-3.902c-2.323-2.271-4.232-5.147-4.638-8.428c-0.278-1.896,0.662-4.413,2.9-4.329
			c2.668,0.267,4.038,3.006,5.84,4.661c4.829,5.563,11.172,2.289,16.476-0.613c3.499-1.851,7.121-3.569,11.015-4.382
			c11.947-2.244,18.327,3.096,27.59,9.167c3.023,1.982,6.71,1.215,9.643-0.545c4.266-2.643,7.457-6.673,11.774-9.261
			c8.846-5.468,18.074-4.125,26.49,1.411c3.413,1.847,9.478,7.336,12.946,3.483c1.056-1.102,1.883-2.404,2.593-3.75
			c0.728-1.602,2.221-2.883,4.031-2.951c2.635-0.252,4.984,2.126,4.809,4.754c-0.116,1.809-1.305,3.32-2.182,4.842
			c-3.722,6.078-10.057,9.221-17.008,6.77c-5.984-1.919-10.528-6.828-16.589-8.551c-9.701-2.469-14.695,6.503-21.874,10.872
			c-3.214,1.927-6.908,3.24-10.646,3.24C198.839,216.382,197.909,216.301,196.983,216.13z"/>
		<path style="fill:#AFF0F1;" d="M138.263,234.858c-4.572-2.386-8.65-6.348-10.522-11.211c-1.595-4.138,3.059-7.317,6.34-4.339
			c2.721,2.537,4.829,5.926,8.352,7.479c7.305,3.002,19.011-12.128,28.931-12.775c7.106-1.496,13.411,2.648,18.616,6.997
			c10.457,9.441,18.303,2.577,27.409-4.389c10.84-8.027,19.004-3.834,26.289,0.359c7.797,4.488,14.585,8.977,22.567-1.525
			c1.776-1.982,2.388-5.154,5.078-6.136c3.345-1.318,7.116,2.3,5.798,5.704c-1.307,2.952-3.248,5.618-5.369,8.043
			c-5.553,6.927-14.972,10.13-23.327,6.532c-5.689-1.922-10.268-6.146-15.915-8.098c-5.468-1.184-10.237,2.713-15.591,6.61
			c-6.833,4.973-14.621,9.944-26.033,4.368c-6.482-2.75-11.445-11.397-19.238-9.214c-9.188,2.933-17.212,13.152-26.925,13.153
			C142.655,236.416,140.512,235.953,138.263,234.858z"/>
		<path style="fill:#AFF0F1;" d="M137.222,257.218c-7.485-2.276-14.549-7.365-17.952-14.543c-1.226-2.81-2.734-6.911-0.341-9.471
			c2.239-1.786,4.374,0.854,5.526,2.622c0.933,1.317,1.76,2.702,2.724,3.997c2.718,3.464,6.337,6.218,10.389,7.936
			c7.998,3.517,16.665-0.584,23.02-5.599c7.072-5.769,16.237-10.576,24.207-3.454c2.386,2.101,4.264,4.728,6.78,6.694
			c3.523,2.774,8.48,3.895,12.701,2.119c8.261-3.717,14.237-12.799,23.979-12.798c5.282-0.032,9.143,2.134,12.869,4.298
			c4.42,2.569,8.648,5.138,14.834,4.039c4.779-0.781,9.367-2.75,13.194-5.719c4.384-3.564,8.071-7.978,10.961-12.825
			c1.199-2.121,3.879-3.273,6.138-2.119c1.716,0.841,2.837,2.889,2.405,4.796c-0.568,2.46-2.336,4.453-3.698,6.526
			c-4.065,5.469-8.886,10.568-14.883,13.922c-7.516,4.091-16.711,6.357-25.027,3.476c-6.181-1.69-13.288-9.48-19.645-6.663
			c-1.975,0.861-3.716,2.145-5.424,3.441c-4.392,3.347-8.787,7.05-14.138,8.726c-4.038,1.131-8.357,1.158-12.37-0.103
			c-10.345-3.011-13.484-12.508-17.717-12.267c-3.674,0.286-6.59,2.926-9.452,4.997c-1.72,1.302-3.464,2.567-5.309,3.687
			c-5.063,3.154-11.042,5.227-17.026,5.227C141.701,258.161,139.436,257.865,137.222,257.218z"/>
		<path style="fill:#AFF0F1;" d="M136.513,280.673c-9.425-0.464-18.463-5.225-23.385-13.407c-2.291-3.606-9.311-16.369-1.643-17.031
			c5.935,2.648,7.157,17.474,20.441,20.543c12.571,2.837,20.815-1.419,27.811-5.675c7.454-4.534,13.493-9.07,21.845-5.023
			c5.964,3.646,11.778,8.2,19.267,6.676c8.113-0.898,13.521-7.22,19.704-11.753c3.326-2.179,7.509-2.753,11.303-1.577
			c6.175,2.016,11.665,6.034,18.33,6.521c15.111,1.674,30.168-7.066,37.637-20.058c3.247-4.898,10.905,0.079,7.574,5.067
			c-12.856,22.124-42.01,31.449-64.342,17.822c-7.944-4.598-12.35,12.823-32.444,13.278c-6.666,0.417-11.324-1.873-15.075-4.164
			c-4.455-2.719-7.634-5.44-11.38-3.622c-9.769,6.626-20.69,12.519-32.719,12.519C138.467,280.789,137.495,280.752,136.513,280.673z
			"/>
	</g>
	<g>
		<path style="fill:#586568;" d="M471.83,80.09c-0.008,0.014-0.015,0.028-0.023,0.042C471.815,80.118,471.822,80.104,471.83,80.09z"
			/>
		<path style="fill:#586568;" d="M447.788,88.598c0.027,0.007,0.053,0.014,0.079,0.022
			C447.841,88.612,447.814,88.606,447.788,88.598z"/>
		<path style="fill:#586568;" d="M442.285,82.494c0.006,0.029,0.011,0.059,0.017,0.09C442.296,82.553,442.29,82.524,442.285,82.494z
			"/>
		<path style="fill:#586568;" d="M473.016,77.084c-0.004,0.016-0.007,0.033-0.012,0.049C473.008,77.117,473.012,77.1,473.016,77.084
			z"/>
		<path style="fill:#586568;" d="M443.661,76.267c-0.008,0.013-0.016,0.023-0.024,0.035
			C443.645,76.292,443.653,76.28,443.661,76.267z"/>
		<path style="fill:#586568;" d="M465.821,68.423c-0.005-0.002-0.009-0.003-0.013-0.004c0.008,0.003,0.014,0.004,0.022,0.007
			C465.826,68.425,465.823,68.424,465.821,68.423z"/>
		<path style="fill:#586568;" d="M416.241,64.413c-0.008,0.008-0.017,0.017-0.025,0.025
			C416.225,64.43,416.233,64.422,416.241,64.413z"/>
		<path style="fill:#586568;" d="M422.59,83.479c-0.023,0.011-0.044,0.021-0.067,0.032C422.545,83.499,422.567,83.489,422.59,83.479
			z"/>
		<path style="fill:#586568;" d="M415.66,64.761c0.011-0.011,0.021-0.022,0.032-0.033c-0.016,0.017-0.032,0.033-0.048,0.05
			C415.649,64.773,415.654,64.767,415.66,64.761z"/>
		<path style="fill:#586568;" d="M435.658,55.72c0.008,0.002,0.015,0.005,0.023,0.007c-0.024-0.008-0.049-0.017-0.073-0.025
			c0.062,0.021,0.123,0.042,0.184,0.063C435.748,55.75,435.703,55.735,435.658,55.72z"/>
		<path style="fill:#586568;" d="M429.885,54.099c0.005-0.002,0.011-0.003,0.017-0.005c-0.012,0.004-0.024,0.007-0.037,0.011
			C429.871,54.103,429.878,54.101,429.885,54.099z"/>
		<path style="fill:#AFD3F1;" d="M412.85,121.211c-1.305,0-2.616-0.127-3.93-0.401c-3.278-0.695-5.685-3.808-5.543-7.153
			c0.163-6.37,10.759-13.805,15.973-16.672c5.634-2.836,12.974-5.58,19.089-2.808c7.514,4.923,0.508,14.254-4.56,18.166
			c-5.947,4.528-13.357,8.868-21.016,8.868C412.858,121.211,412.854,121.211,412.85,121.211z"/>
		<path style="fill:#AFD3F1;" d="M414.002,85.184c-0.282-0.038-0.56-0.084-0.836-0.152c-0.166-0.047-0.33-0.099-0.492-0.158
			c-0.236-0.142-0.466-0.295-0.688-0.461c-0.273-0.206-0.542-0.425-0.789-0.659c-0.123-0.124-0.238-0.253-0.345-0.389
			c-0.002-0.001-0.003-0.003-0.003-0.003c-0.182-0.237-0.347-0.486-0.502-0.741c-0.152-0.26-0.287-0.528-0.408-0.803
			c-0.002-0.005-0.004-0.01-0.006-0.015c-0.001-0.001-0.002-0.002-0.002-0.003l-0.001-0.001c0-0.001,0-0.001-0.001-0.002
			c-0.003-0.006-0.006-0.013-0.008-0.019c0.002,0.003,0.003,0.007,0.005,0.01c-0.006-0.013-0.012-0.025-0.017-0.038
			c-0.236-0.549-0.433-1.122-0.57-1.704c0-0.001,0-0.002-0.001-0.003c0,0,0,0,0-0.001c0-0.001-0.001-0.001-0.001-0.002
			c0,0,0,0,0-0.001s0-0.002-0.001-0.003c0,0,0-0.001,0-0.002l-0.001-0.001v-0.001v-0.001c0,0,0,0-0.001,0c0-0.001,0-0.002,0-0.003
			c0-0.001,0-0.002,0-0.003c-0.001-0.003-0.002-0.007-0.003-0.01v-0.001c0-0.002,0-0.003-0.001-0.003c0-0.001,0-0.001,0-0.002
			c-0.001-0.001-0.002-0.002-0.001-0.003c-0.001-0.001-0.001-0.001-0.001-0.002c0-0.001,0-0.001,0-0.002
			c-0.061-0.273-0.111-0.551-0.164-0.827c-0.002-0.014-0.006-0.029-0.008-0.043c-0.001-0.001-0.001-0.002-0.001-0.002
			c0,0,0,0,0.001,0c-0.003-0.015-0.006-0.03-0.008-0.045c-0.064-0.364-0.119-0.734-0.129-1.103c0-0.003,0-0.007,0-0.01
			c-0.007-0.481,0.022-0.959,0.08-1.438c-0.002,0.012-0.003,0.023-0.005,0.034c0.003-0.019,0.005-0.039,0.008-0.059
			c0.001-0.003,0.001-0.007,0.001-0.011c0.001-0.001,0.001-0.003,0.001-0.003c0.002-0.013,0.004-0.024,0.005-0.036
			c0.004-0.031,0.008-0.062,0.013-0.093c-0.002,0.02-0.005,0.04-0.008,0.06c0.006-0.045,0.013-0.089,0.018-0.135
			c-0.001,0.003-0.002,0.007-0.003,0.011c0.002-0.007,0.003-0.014,0.003-0.021c0.002-0.009,0.003-0.019,0.004-0.028
			c-0.001,0.008-0.002,0.014-0.003,0.022c0.076-0.512,0.195-1.022,0.337-1.519c0.159-0.558,0.295-1.124,0.51-1.664
			c0.193-0.465,0.416-0.918,0.623-1.378c0.223-0.494,0.464-0.979,0.727-1.453c0.434-0.767,0.919-1.502,1.441-2.211
			c0.245-0.323,0.517-0.619,0.794-0.912c0.283-0.299,0.564-0.599,0.851-0.895c0.151-0.151,0.309-0.296,0.461-0.445
			c0.182-0.177,0.357-0.362,0.534-0.544c0.003-0.003,0.006-0.006,0.008-0.008c0.015-0.015,0.03-0.03,0.045-0.046
			c0.21-0.214,0.42-0.429,0.629-0.643v-0.001h0.001c0.034-0.034,0.068-0.069,0.102-0.104c0.003-0.003,0.005-0.005,0.007-0.007
			c0.012-0.012,0.023-0.023,0.034-0.034c0.012-0.013,0.024-0.025,0.037-0.037c0.026-0.026,0.053-0.053,0.079-0.078
			c0.006-0.007,0.013-0.013,0.019-0.019c0.008-0.008,0.017-0.017,0.025-0.024c0.007-0.007,0.013-0.014,0.02-0.021
			c0.005-0.004,0.009-0.008,0.013-0.013c0.008-0.008,0.017-0.018,0.025-0.025c0.007-0.008,0.014-0.015,0.022-0.022
			c0.003-0.002,0.004-0.004,0.007-0.006c0.264-0.259,0.53-0.516,0.784-0.783c0.268-0.283,0.532-0.57,0.803-0.85
			c1.14-1.175,2.386-2.243,3.658-3.271c0.615-0.497,1.252-0.966,1.917-1.396c0.616-0.399,1.26-0.755,1.911-1.093
			c0.679-0.339,1.388-0.626,2.108-0.869c0.387-0.118,0.78-0.216,1.169-0.326c0.393-0.111,0.786-0.211,1.185-0.289
			c0.45-0.08,0.9-0.154,1.354-0.19c0.466-0.02,0.933-0.017,1.399,0.008c0.495,0.046,0.982,0.135,1.47,0.233
			c0.465,0.099,0.925,0.216,1.376,0.365c0.288,0.103,0.571,0.214,0.849,0.342c0.234,0.123,0.461,0.257,0.684,0.401
			c0.201,0.139,0.395,0.284,0.582,0.441c0.369,0.334,0.72,0.697,1.053,1.065c0.126,0.151,0.244,0.305,0.356,0.467
			c0.068,0.109,0.131,0.218,0.19,0.332c0.087,0.2,0.16,0.403,0.228,0.61c0.086,0.267,0.166,0.536,0.224,0.81
			c0.036,0.219,0.058,0.439,0.073,0.66c0.038,0.878-0.017,1.761-0.073,2.638c-0.029,0.337-0.08,0.67-0.111,1.007
			c-0.032,0.337-0.045,0.673-0.101,1.007c-0.079,0.416-0.151,0.839-0.269,1.246c-0.134,0.412-0.28,0.819-0.407,1.233
			c-0.14,0.454-0.286,0.903-0.465,1.344c-0.156,0.359-0.325,0.713-0.492,1.067c-0.176,0.375-0.354,0.747-0.556,1.109
			c-0.216,0.378-0.439,0.752-0.689,1.109c-0.366,0.498-0.757,0.973-1.167,1.435c-0.452,0.507-0.891,1.026-1.342,1.537
			c-0.332,0.36-0.685,0.701-1.051,1.027c-0.521,0.453-1.044,0.904-1.57,1.351c-0.491,0.418-1.009,0.807-1.526,1.192
			c-0.476,0.346-0.971,0.665-1.457,0.997c-0.393,0.268-0.788,0.534-1.189,0.787c-0.435,0.267-0.878,0.518-1.321,0.77
			c-0.449,0.256-0.895,0.518-1.35,0.765c-0.692,0.36-1.4,0.685-2.108,1.012c0.007-0.002,0.013-0.006,0.02-0.008
			c-0.018,0.008-0.038,0.017-0.056,0.025c-0.824,0.375-1.665,0.72-2.521,1.017c-0.72,0.237-1.451,0.43-2.195,0.569
			c-0.027,0.005-0.054,0.01-0.082,0.014c-0.725,0.118-1.464,0.195-2.199,0.216C415.055,85.299,414.526,85.246,414.002,85.184z"/>
		<path style="fill:#AFD3F1;" d="M380.117,111.215c-4.657-2.26-1.746-14.183-0.762-18.28c1.067-5.364,2.89-10.567,5.319-15.462
			c1.063-2.048,2.127-4.148,3.641-5.907c2.758-3.309,7.694-4.273,9.184,0.703c1.016,3.713,0.022,7.885-0.91,11.459
			c-1.804,6.453-4.596,12.578-7.514,18.592c-0.949,1.934-1.925,3.872-3.096,5.684c-0.982,1.595-2.587,3.528-4.518,3.528
			C381.028,111.532,380.58,111.435,380.117,111.215z"/>
		<path style="fill:#AFD3F1;" d="M401.393,55.467c-8.401-1.596-7.762-19.837-5.293-25.954c5.181-12.953,18.65-7.785,19.62,4.598
			c0.685,6.199-0.646,12.933-4.612,17.862c-1.784,2.115-4.538,3.964-7.352,3.965C402.967,55.939,402.172,55.793,401.393,55.467z"/>
		<path style="fill:#AFD3F1;" d="M428.728,42.854c-6.339-2.974-3.334-12.243-0.184-16.641c0.683-1.002,1.444-1.955,2.28-2.836
			c0.643-0.825,1.333-1.614,2.067-2.358c2.448-2.583,5.736-4.421,9.294-4.833c4.451-0.604,8.412,2.482,8.3,7.096
			c-0.001,2.547-1.104,4.942-2.324,7.125c-2.133,3.707-5.035,6.961-8.449,9.537c-0.01,0.007-0.02,0.015-0.03,0.023
			c-0.003,0.002-0.005,0.004-0.009,0.006c-2.355,1.722-5.292,3.395-8.248,3.395C430.523,43.368,429.619,43.213,428.728,42.854z"/>
		<path style="fill:#AFD3F1;" d="M456.494,58.984c-3.731-0.241-6.381-3.596-5.883-7.277c0.678-5.046,3.772-9.569,7.17-13.233
			c2.49-2.453,5.597-5.12,9.319-4.836c4.685,0.375,6.351,5.658,5.109,9.625c-0.367,2.48-1.706,4.65-2.992,6.764
			c-2.634,4.07-6.534,9.01-11.766,9.011C457.137,59.038,456.818,59.021,456.494,58.984z"/>
		<path style="fill:#AFD3F1;" d="M451.175,89.06c-1.082-0.052-2.176-0.149-3.229-0.417c-0.016-0.004-0.032-0.009-0.048-0.013
			c-0.442-0.134-0.878-0.308-1.3-0.497c-0.365-0.171-0.723-0.359-1.067-0.569c-0.201-0.13-0.394-0.268-0.581-0.418
			c-0.229-0.196-0.446-0.404-0.654-0.623c-0.182-0.201-0.352-0.41-0.512-0.63c-0.255-0.365-0.491-0.746-0.703-1.139
			c-0.187-0.369-0.351-0.751-0.493-1.14c-0.118-0.337-0.217-0.677-0.287-1.029c-0.003-0.011-0.005-0.021-0.007-0.032
			c-0.002-0.007-0.003-0.015-0.003-0.022c-0.048-0.282-0.079-0.563-0.094-0.849c-0.013-0.472,0.01-0.944,0.05-1.414
			c0.031-0.33,0.069-0.66,0.119-0.987c0.029-0.165,0.063-0.33,0.104-0.494c0.053-0.187,0.114-0.37,0.18-0.553
			c0.141-0.369,0.309-0.723,0.489-1.075c0.162-0.303,0.332-0.602,0.521-0.889c0.002-0.003,0.004-0.008,0.007-0.011
			c0.001-0.001,0.001-0.001,0.002-0.002c0.003-0.005,0.007-0.01,0.009-0.015c0.383-0.556,0.777-1.1,1.21-1.614
			c0.003-0.003,0.005-0.006,0.008-0.009c0.001-0.001,0.003-0.002,0.003-0.004c0.166-0.19,0.333-0.378,0.504-0.563
			c0.168-0.167,0.339-0.331,0.511-0.492c2.664-2.294,6.495-4.264,10.555-5.328c0.186-0.039,0.371-0.077,0.557-0.114
			c0.717-0.14,1.441-0.239,2.17-0.302c0.665-0.046,1.333-0.05,2-0.022c0.692,0.029,1.384,0.068,2.072,0.148
			c0.05,0.006,0.1,0.013,0.15,0.019c0.017,0.002,0.033,0.004,0.049,0.006c0.003,0.001,0.006,0.001,0.009,0.002
			c0.025,0.003,0.052,0.007,0.077,0.01c0.008,0,0.014,0.002,0.022,0.003c0.003,0,0.004,0,0.006,0.001
			c0.371,0.049,0.742,0.097,1.108,0.166c0.383,0.072,0.759,0.166,1.133,0.278c0.003,0.001,0.005,0.002,0.008,0.002
			c0.002,0.001,0.004,0.002,0.007,0.002c0.001,0,0.002,0.001,0.003,0.001c0.002,0.001,0.004,0.002,0.006,0.003
			c0.003,0.001,0.007,0.002,0.01,0.002c0.011,0.003,0.021,0.007,0.032,0.01c0.802,0.253,1.598,0.546,2.356,0.91
			c0.552,0.281,1.082,0.608,1.594,0.958c0.174,0.125,0.341,0.258,0.503,0.4c0.205,0.194,0.395,0.4,0.58,0.615
			c0.536,0.641,1.043,1.306,1.501,2.006c0.139,0.222,0.278,0.449,0.395,0.683c0.035,0.082,0.067,0.166,0.095,0.249
			c0.059,0.196,0.112,0.395,0.151,0.597c0.043,0.28,0.078,0.563,0.091,0.847c0.005,0.22,0.003,0.439-0.018,0.659
			c-0.027,0.232-0.064,0.462-0.115,0.69c-0.06,0.253-0.125,0.505-0.202,0.753c-0.075,0.245-0.15,0.492-0.236,0.732
			c-0.144,0.367-0.318,0.721-0.501,1.072c0.003-0.003,0.004-0.007,0.007-0.011c-0.084,0.156-0.168,0.312-0.251,0.468
			c-0.064,0.12-0.137,0.237-0.215,0.349c-0.071,0.1-0.141,0.199-0.212,0.299c-0.251,0.354-0.509,0.693-0.802,1.012
			c-0.262,0.28-0.54,0.543-0.812,0.813c-0.302,0.299-0.619,0.583-0.943,0.858c-0.407,0.339-0.832,0.66-1.257,0.978
			c-0.191,0.126-0.382,0.251-0.574,0.374c-0.347,0.218-0.697,0.429-1.044,0.645c-0.39,0.243-0.782,0.479-1.183,0.701
			c-0.57,0.305-1.159,0.581-1.745,0.854c-0.393,0.176-0.793,0.332-1.195,0.484c-0.53,0.197-1.065,0.38-1.604,0.548
			c-0.461,0.135-0.926,0.253-1.398,0.344c-0.411,0.068-0.825,0.119-1.237,0.184c-0.401,0.063-0.8,0.138-1.201,0.203
			c-0.706,0.115-1.414,0.196-2.126,0.26c-0.747,0.061-1.493,0.096-2.241,0.096C451.759,89.077,451.467,89.072,451.175,89.06z"/>
		<path style="fill:#AFD3F1;" d="M461.757,32.01c-0.827,0.216-1.557,0.654-2.123,1.293c-0.833,0.877-1.68,1.743-2.443,2.683
			c-1.337,1.667-2.797,3.254-3.855,5.122c-1.151,2.168-2.485,4.283-3.213,6.641c-0.294,1.124-0.406,2.285-0.433,3.443
			c0.14,2.75,0.554,6.287,2.478,8.386c1.026,0.924,2.286,1.829,3.713,1.876c1.314-0.005,2.545-0.57,3.582-1.345
			c1.619-1.007,3.122-2.175,4.671-3.285c3.274-2.252,6.043-5.156,7.654-8.828c1.162-3.032,1.94-6.334,1.66-9.595
			c-0.274-2.578-1.664-4.635-4.06-5.688c-1.62-0.588-3.327-1.053-5.059-1.084C463.459,31.637,462.605,31.827,461.757,32.01z
			 M454.713,63.178c-2.519-0.298-4.494-2.131-5.738-4.243c-2.666-4.136-2.215-9.525-0.367-13.898
			c0.737-2.04,1.775-3.941,2.989-5.735c2.006-3.221,4.451-6.343,7.863-8.147c2.096-1.715,4.731-2.542,7.432-2.415
			c3.16,0.193,6.409,1.985,8.311,4.508c1.888,2.565,2.049,5.906,1.748,8.968c-0.167,1.44-0.375,2.874-0.915,4.228
			c-0.345,1.057-0.854,2.047-1.425,2.998c-1.093,1.894-2.359,3.698-3.874,5.281c-2.026,2.231-4.626,3.775-7.266,5.166
			c-0.946,0.498-1.774,1.191-2.684,1.75c-1.524,0.966-3.292,1.604-5.098,1.604C455.364,63.241,455.038,63.22,454.713,63.178z"/>
		<path style="fill:#AFD3F1;" d="M424.124,54.348c-1.404,0.865-2.667,1.935-3.91,3.015c-1.941,1.903-3.647,4.036-5.479,6.042
			c-2.286,2.423-4.824,4.714-6.337,7.734c-1.001,1.924-1.954,3.917-2.409,6.05c-0.212,1.252-0.105,2.536,0.171,3.77
			c0.374,2.102,1.778,3.911,3.738,4.769c2.425,1.157,5.174,1.563,7.839,1.293c3.38-0.338,6.052-1.451,8.697-3.113
			c0.791-0.405,1.549-0.87,2.303-1.341c0.334-0.207,0.666-0.419,0.991-0.64c0.434-0.295,0.853-0.609,1.271-0.926
			c-0.01,0.008-0.021,0.017-0.032,0.025c0.222-0.168,0.446-0.336,0.666-0.506c0.712-0.547,1.393-1.145,2.026-1.78
			c0.227-0.227,0.448-0.461,0.668-0.696c0.282-0.248,0.559-0.498,0.833-0.751c0.938-0.874,1.868-1.761,2.725-2.713
			c1.444-1.751,2.576-3.775,3.364-5.901c1.154-3.972,1.727-9.412-0.173-13.207c-1.446-2.536-4.328-4.072-7.214-4.146
			C430.42,51.351,427.055,52.603,424.124,54.348z M411.098,89.791c-5.204-1.036-8.834-5.258-8.686-10.623
			c0.131-2.873,1.429-5.558,2.938-7.955c1.383-2.006,2.902-3.922,4.503-5.759c2.891-3.112,5.81-6.202,8.754-9.266
			c1.865-2.016,3.98-3.81,6.342-5.22c2.582-1.627,5.517-2.816,8.607-2.806c3.971-0.1,8.185,2.299,10.258,5.661
			c1.901,3.417,1.827,7.835,1.124,11.586c-0.393,2.056-1.277,3.976-2.288,5.795c-0.496,0.911-1.035,1.792-1.685,2.602
			c-1.472,1.76-2.94,3.547-4.727,5.001c-1.312,1.093-2.739,2.036-4.07,3.101c-2.627,2.019-5.243,4.092-8.03,5.872
			c-2.743,1.642-5.934,2.374-9.123,2.374C413.697,90.153,412.382,90.028,411.098,89.791z"/>
		<path style="fill:#AFD3F1;" d="M449.376,90.749c0.706,0.091,1.423,0.119,2.134,0.134c0.491,0.01,0.983,0.016,1.475,0.016
			c0.278,0,0.556-0.002,0.834-0.006c0.734-0.012,1.466-0.046,2.198-0.094c0.409-0.028,0.818-0.053,1.227-0.091
			c0.405-0.038,0.802-0.099,1.2-0.179c0.942-0.196,1.883-0.417,2.811-0.67c0.374-0.103,0.745-0.213,1.109-0.345
			c0.387-0.141,0.765-0.3,1.144-0.462c0.227-0.097,0.456-0.194,0.684-0.293c0.829-0.2,1.644-0.447,2.435-0.77
			c1.308-0.63,2.526-1.451,3.701-2.301c1.341-1.143,2.517-2.464,3.437-3.969c0.814-1.208,1.56-2.52,1.741-3.988
			c0.089-1.275-0.096-2.56-0.492-3.78c-0.026-0.154-0.059-0.307-0.092-0.459c-0.065-0.291-0.128-0.581-0.224-0.863
			c-0.22-0.647-0.526-1.279-0.945-1.821c-0.258-0.335-0.55-0.629-0.872-0.903c-0.263-0.224-0.548-0.42-0.831-0.617
			c-0.411-0.294-0.812-0.604-1.246-0.864c-0.455-0.273-0.924-0.521-1.408-0.737c-0.522-0.232-1.048-0.458-1.588-0.645
			c-0.565-0.195-1.143-0.349-1.725-0.486c-0.786-0.186-1.585-0.32-2.389-0.4c-0.828-0.081-1.66-0.077-2.49-0.026
			c-0.773,0.048-1.543,0.136-2.311,0.233c-0.755,0.096-1.505,0.226-2.256,0.348c-0.689,0.112-1.377,0.247-2.059,0.393
			c-0.77,0.164-1.522,0.383-2.269,0.631c-0.797,0.266-1.58,0.601-2.328,0.983c-0.415,0.212-0.831,0.427-1.229,0.669
			c-0.289,0.176-0.568,0.366-0.844,0.561c-0.011,0.008-0.022,0.015-0.033,0.022c0.004-0.003,0.008-0.005,0.013-0.007
			c-0.006,0.003-0.012,0.007-0.018,0.012c-0.007,0.005-0.012,0.009-0.019,0.014c-0.001,0.001-0.002,0.002-0.003,0.003
			c-0.003,0.002-0.007,0.004-0.009,0.006c-0.003,0.002-0.006,0.004-0.008,0.006c-0.002,0.001-0.003,0.002-0.003,0.002
			c-0.928,0.662-1.816,1.374-2.631,2.173c-0.542,0.533-1.063,1.097-1.542,1.686c-0.426,0.525-0.847,1.062-1.205,1.636
			c-0.204,0.328-0.419,0.648-0.61,0.982c-0.187,0.328-0.355,0.665-0.499,1.013c-0.15,0.361-0.288,0.727-0.4,1.101
			c-0.11,0.361-0.19,0.723-0.243,1.097c-0.053,0.375-0.078,0.75-0.089,1.128c-0.012,0.359-0.02,0.716-0.002,1.074
			c0.019,0.388,0.047,0.777,0.116,1.16c0.069,0.379,0.158,0.756,0.275,1.123c0.244,0.77,0.544,1.515,0.923,2.228
			c0.354,0.665,0.823,1.261,1.377,1.771c0.303,0.278,0.622,0.542,0.959,0.779c0.338,0.237,0.683,0.48,1.054,0.66
			c0.365,0.179,0.743,0.344,1.128,0.477c0.386,0.133,0.781,0.221,1.177,0.32c-0.015-0.004-0.029-0.007-0.044-0.012
			C448.169,90.556,448.766,90.671,449.376,90.749z M453.871,93.259c-2.241-0.11-4.139-0.323-6.282-0.742
			c-1.299-0.405-2.641-1.382-3.705-2.095c-1.879-1.249-4.063-2.302-5.136-4.402c-1.055-2.041-1.09-4.228-0.048-6.278
			c0.563-1.453,1.108-2.928,1.95-4.245c1.225-1.761,2.607-3.445,4.21-4.875c1.083-0.993,2.424-1.633,3.709-2.316
			c2.856-1.543,6.014-2.413,9.211-2.884c3.073-0.474,6.105-1.084,9.165-0.335c2.884,0.412,5.313,1.19,7.386,3.353
			c0.8,0.972,1.676,1.927,2.24,3.062c0.744,1.609,1.102,3.397,1.225,5.159c0.086,1.796-0.375,3.583-1.228,5.158
			c-0.955,1.936-2.296,3.683-3.836,5.19c-0.697,0.602-1.422,1.173-2.128,1.766c-0.809,0.658-1.73,1.143-2.651,1.621
			c-1.289,0.713-2.582,1.44-3.963,1.961c-1.862,0.72-3.869,0.84-5.844,0.869c-0.648-0.002-1.296,0.008-1.944,0.019
			c-0.601,0.009-1.203,0.019-1.803,0.019C454.223,93.262,454.046,93.261,453.871,93.259z"/>
		<path style="fill:#AFD3F1;" d="M429.211,92.456c-3.5,1.196-6.948,2.541-10.288,4.13c-2.84,1.349-5.809,2.459-8.525,4.051
			c-2.292,1.414-3.973,3.528-5.666,5.576c-1.206,1.476-2.492,2.953-3.07,4.806c-0.535,1.564-0.633,3.258-0.234,4.865
			c0.149,0.69,0.327,1.381,0.615,2.028c0.322,0.608,0.745,1.156,1.178,1.688c1.118,1.341,2.785,1.99,4.385,2.57
			c2.783,0.963,5.746,1.099,8.662,0.874c1.377-0.096,2.712-0.477,4.039-0.831c1.852-0.51,3.654-1.17,5.37-2.033
			c3.527-1.833,6.675-4.303,9.568-7.013c1.659-1.485,3.295-3.002,4.793-4.651c2.934-3.144,3.928-8.896,2.684-12.953
			c-0.625-1.76-1.827-3.451-3.64-4.1c-1.017-0.301-2.041-0.428-3.063-0.428C433.704,91.034,431.398,91.686,429.211,92.456z
			 M409.255,125.362c-5.003-0.283-10.24-3.222-11.694-8.255c-0.809-3.379,0.321-6.93,2.19-9.763c1.638-3.006,4.117-5.447,6.997-7.27
			c2.814-1.791,5.927-3.067,8.841-4.663c3.377-1.78,6.593-3.885,10.156-5.294c1.763-0.674,3.571-1.23,5.408-1.667
			c3.373-0.907,7.064-1.348,10.085,0.787c5.509,3.983,6.722,12.895,2.483,18.21c-2.912,3.805-6.376,7.21-10.159,10.146
			c-2.892,2.171-5.966,4.131-9.346,5.447c-4.077,1.5-8.421,2.399-12.773,2.399C410.714,125.439,409.984,125.414,409.255,125.362z"/>
		<path style="fill:#AFD3F1;" d="M386.767,69.967c-1.167,1.748-2.562,3.37-3.416,5.306c-0.911,2.209-1.717,4.467-2.356,6.77
			c-0.478,1.486-0.64,3.04-1.015,4.549c-0.656,2.432-1.206,4.894-2.042,7.273c-0.555,2.003-1.416,3.901-2.042,5.881
			c-0.799,2.469-1.018,4.988-0.403,7.525c0.833,2.667,2.299,6.573,5.741,6.073c4.341-0.446,7.472-3.952,9.147-7.75
			c1.446-3.529,2.451-7.22,3.653-10.835c1.69-5.226,3.591-10.382,4.697-15.754c0.627-3.94,0.458-6.995-2.535-9.943
			c-0.978-1.012-2.252-1.863-3.693-1.934C390.317,67.23,388.18,68.294,386.767,69.967z M379.6,115.721
			c-1.486-0.169-2.872-0.887-3.891-1.981c-1.588-1.559-2.64-3.566-3.115-5.735c-1.068-3.188-0.333-6.549,0.545-9.69
			c0.465-1.71,0.923-3.423,1.435-5.12c0.729-2.877,1.354-5.787,2.185-8.641c0.943-2.555,1.62-5.198,2.538-7.761
			c0.632-1.606,1.441-3.135,2.137-4.714c0.396-0.884,0.788-1.765,1.349-2.561c1.61-2.042,3.652-3.932,6.191-4.689
			c1.229-0.319,2.525-0.575,3.792-0.35c2.692,0.452,5.198,2.169,6.517,4.568c0.834,1.644,1.271,3.472,1.528,5.288
			c0.344,2.811-0.268,5.606-0.971,8.314c-0.777,2.877-1.744,5.706-2.747,8.512c-0.552,1.409-0.943,2.862-1.237,4.345
			c-0.453,1.847-0.879,3.705-1.491,5.507c-1.363,3.893-3.167,7.683-6.116,10.619c-2.099,2.134-4.8,4.13-7.883,4.13
			C380.113,115.762,379.857,115.748,379.6,115.721z"/>
		<path style="fill:#AFD3F1;" d="M403.978,20.594c-2.387,0.31-4.392,1.835-6.111,3.423c-1.954,1.942-3.049,4.557-3.93,7.124
			c-0.926,2.645-1.538,5.417-1.603,8.225c0.017,1.534,0.282,3.048,0.57,4.549c0.441,2.762,1.297,5.437,2.571,7.929
			c0.455,0.88,0.79,1.835,1.378,2.642c1.349,1.65,3.524,2.449,5.615,2.503c2.913-0.109,5.643-1.383,7.863-3.224
			c1.3-0.947,2.347-2.184,3.168-3.56c1.707-3.732,3.654-7.472,4.207-11.586c0.372-2.785-0.08-5.665-1.068-8.283
			c-0.606-1.391-1.502-2.633-2.407-3.843c-2.402-2.956-5.311-5.963-9.264-5.963C404.645,20.532,404.315,20.552,403.978,20.594z
			 M401.379,59.44c-2.713-0.444-5.056-2.108-6.785-4.193c-2.902-3.141-4.271-7.395-4.967-11.541
			c-0.264-1.867-0.135-3.754-0.189-5.633c-0.021-1.028-0.015-2.055,0.09-3.078c0.256-2.899,1.264-5.665,2.674-8.196
			c1.368-2.561,3.381-4.766,5.835-6.321c2.316-1.558,5.148-2.353,7.906-1.673c2.743,0.515,4.931,2.383,6.854,4.294
			c1.27,1.246,2.476,2.57,3.558,3.983c1.712,2.249,2.424,5.028,2.756,7.792c0.323,2.585,0.544,5.246-0.13,7.795
			c-0.345,1.43-0.919,2.781-1.526,4.115c-1.105,2.704-2.055,5.508-3.735,7.926c-1.387,2.188-3.765,3.482-6.169,4.27
			c-0.999,0.29-2.007,0.588-3.051,0.661c-0.233,0.018-0.468,0.026-0.702,0.026C402.988,59.668,402.172,59.57,401.379,59.44z"/>
		<path style="fill:#AFD3F1;" d="M444.575,14.399c-0.657,0.038-1.317,0.101-1.968,0.2c-0.748,0.15-1.279,0.372-1.972,0.6
			c-2.477,0.869-4.7,2.296-6.715,3.96c-2.078,1.899-3.803,4.156-5.527,6.371c-1.684,2.311-3.478,4.702-4.138,7.536
			c-0.683,3.29,0.167,6.621,2.607,8.981c1.668,1.38,3.859,2.286,6.045,2.172c1.145-0.019,2.256-0.267,3.306-0.719
			c1.267-0.467,2.489-1.053,3.643-1.753c2.087-1.241,3.855-3.218,5.463-4.94c1.275-1.49,2.591-2.952,3.792-4.501
			c0.746-1.112,1.422-2.271,2.093-3.428c0.808-1.481,1.279-3.107,1.368-4.793c0.309-3.044-0.381-5.267-2.311-7.643
			c-1.362-1.578-2.885-2.077-4.769-2.077C445.196,14.364,444.891,14.376,444.575,14.399z M429.121,46.157
			c-5.566-0.753-8.775-6.46-7.678-11.748c0.627-2.65,1.896-5.13,3.312-7.442c0.435-0.681,0.926-1.322,1.415-1.963
			c0.58-0.876,1.128-1.775,1.697-2.658c1.09-1.782,2.154-3.582,3.591-5.115c1.213-1.5,2.743-2.713,4.452-3.601
			c2.201-1.215,4.58-2.049,7.057-2.467c1.581-0.27,3.234-0.346,4.779,0.147c2.117,0.601,4.141,1.81,5.249,3.764
			c1.44,2.516,2.537,5.373,2.5,8.31c-0.023,1.006-0.231,1.994-0.509,2.957c-0.703,2.724-1.837,5.392-3.73,7.506
			c-0.443,0.534-0.862,1.089-1.308,1.619c-1.418,1.559-3.069,2.969-4.667,4.327c-3.06,2.614-6.572,4.846-10.533,5.758
			c-1.398,0.383-2.856,0.697-4.312,0.697C429.997,46.249,429.559,46.22,429.121,46.157z"/>
	</g>
	<path style="fill:#AFD4F1;" d="M143.993,474.158c9.766,5.571,23.443,9.773,33.192,2.077c10.035-7.775,4.842-32.014,22.852-38.448
		c10.255-3.334,21.486,1.292,31.764-2.097c6.564-2.894,3.313-10.919,0.594-15.557c-4.052-6.58-9.91-11.938-16.238-16.295
		c-11.557-7.064-25.383-12.051-39.078-10.4c-4.652,0.411-19.64,5.909-14.332,12.312c5.13,4.11,12.357,2.863,18.48,3.7
		c8.569,0.556,20.316,5.538,13.518,15.694c-4.285,5.092-11.817,4.788-17.15,8.337c-6.329,3.46-8.088,9.155-7.983,15.983
		c0.068,8.455-3.225,16.822-12.98,16.641c-14.107,0.258-16.64-15.419-19.133-26.159c-1.413-5.56-4.822-10.503-9.412-13.925
		c-10.294-7.951-24.825-9.689-36.83-4.818c-6.816,2.998-6.29,7.324,0.897,9.138c4.991,1.317,10.254,1.097,15.204,2.604
		c6.357,1.185,14.458,8.033,7.017,13.555c-6.846,4.091-15.427,3.472-22.576,6.964c-9.737,4.382-18.514,14.153-30.143,10.17
		c-6.379-1.813-10.612-7.176-15.421-11.355c-2.347-2.195-6.098-1.565-6.14,2.099c0.328,3.716,2.422,7.152,4.992,9.776
		c4.964,4.467,11.603,7.126,18.171,8.069c16.177,1.334,19.438-3.431,32.135-10.647c5.58-3.483,12.292-5.727,18.872-4.182
		c7.68,1.477,13.969,5.976,20.245,10.467c2.811,2.012,5.621,4.024,8.552,5.76C143.372,473.803,143.682,473.983,143.993,474.158z
		 M222.602,400.783c10.595,7.54,29.058,29.189,13.223,39.802c-8.641,4.379-18.909,2.005-28.22,2.164
		c-5.376-0.104-10.49,2.632-12.899,7.517c-6.041,10.956-4.31,27.032-17.207,33.224c-11.172,6.08-24.849,2.534-35.401-3.259
		c-3.241-1.791-6.336-3.956-9.407-6.107c-9.326-6.532-18.445-12.942-30.856-8.409c-4.775,1.333-8.553,4.71-12.793,7.125
		c-7.092,4.417-15.552,6.808-23.915,5.765c-12.123-0.841-25.8-6.917-30.208-19.019c-1.39-3.575-1.601-7.885,0.858-11.051
		c3.231-4.958,10.258-4.708,14.407-1.069c4.892,4.056,9.03,10.085,15.856,10.753c7.384,0.623,13.018-5.18,19.113-8.405
		c4.909-2.782,10.352-4.496,15.869-5.58c3.285-0.771,6.836-1.097,9.782-2.844c-3.68-2.733-8.47-3.317-13.242-3.89
		c-6.448-0.774-12.865-1.53-16.472-7.546c-5.239-13.471,14.608-17.824,24.339-17.643c12.137-0.153,24.611,5.02,32.341,14.511
		c6.482,7.433,6.25,17.727,9.879,26.436c2.913,8.071,14.746,9.954,15.461-0.258c0.55-6.759,0.12-14.283,5.026-19.645
		c3.608-4.35,8.859-6.952,14.138-8.693c2.338-0.854,4.9-1.304,6.966-2.751c3.154-2.564-0.597-4.788-3.219-5.268
		c-6.672-1.886-13.751-0.755-20.417-2.647c-5.448-1.194-10.787-5.62-10.237-11.65c0.555-6.348,6.638-10.118,11.898-12.567
		c15.849-6.534,35.169-1.248,49.853,7.451C219.031,398.363,220.866,399.554,222.602,400.783z"/>
	<g>
		<path style="fill:#F2B7B7;" d="M276.444,401.024c-2.662-0.399-5.242-1.684-6.814-3.925c-3.182-4.951-3.19-11.515-1.017-16.868
			c3.101-7.78,13.014-8.47,20.178-7.171c3.174,0.589,6.144,2.393,7.69,5.296c1.319,2.418,1.205,5.281,0.833,7.927
			c-0.625,3.551-2.102,7.115-4.711,9.661c-1.392,1.323-3.062,2.25-4.844,2.917c-2.822,1.384-5.967,2.319-9.125,2.319
			C277.902,401.18,277.172,401.13,276.444,401.024z"/>
		<path style="fill:#F2B7B7;" d="M296.746,368.508c-3.355-0.05-6.16-2.317-8.177-4.823c-1.686-2.061-3.232-4.272-4.395-6.671
			c-2.561-5.098-2.257-10.414,1.132-15.048c2.189-2.874,5.241-4.966,8.353-6.732c4.113-2.188,9.149-4.378,13.777-2.574
			c2.25,0.89,4.065,2.569,5.615,4.386c2.308,2.691,3.848,6.168,3.367,9.765c-0.477,3.721-2.598,6.955-4.473,10.117
			c-3.378,5.351-7.99,11.584-14.932,11.585C296.925,368.512,296.836,368.511,296.746,368.508z"/>
		<path style="fill:#F2B7B7;" d="M317.938,393.108c-11.049-1.798-11.24-9.306-7.118-18.051c5.025-10.644,24.539-10.652,26.488,2.161
			c1.483,7.755-4.445,14.723-11.946,15.994c-1.239,0.094-2.491,0.169-3.741,0.169C320.389,393.38,319.158,393.306,317.938,393.108z"
			/>
		<path style="fill:#F2B7B7;" d="M250.194,375.069c-3.145-0.517-6.786-0.85-8.436-4.059c-3.296-6.271-4.347-13.85-2.756-20.765
			c1.553-7.127,8.844-9.341,15.346-8.66c8.535,0.379,20.523,3.698,21.065,13.904c0.644,7.226-2.956,14.937-10.284,17.068
			c-3.965,1.45-8.165,2.662-12.409,2.662C251.88,375.218,251.038,375.17,250.194,375.069z"/>
		<path style="fill:#F2B7B7;" d="M267.111,335.03c-5.314-0.042-8.677-4.17-9.434-9.152c-0.714-3.86-0.887-7.912-0.008-11.759
			c1.79-11.903,15.048-18.383,25.544-12.413c3.284,1.53,5.408,4.586,6.902,7.782c3.749,8.12,2.973,16.379-5.917,20.348
			c-2.97,1.408-6.032,2.63-9.134,3.714c-2.38,0.793-4.842,1.491-7.365,1.491C267.503,335.042,267.306,335.038,267.111,335.03z"/>
		<path style="fill:#F2B7B7;" d="M322.28,322.713c-0.824-0.14-1.647-0.109-2.474-0.076c-0.437,0.017-0.874,0.035-1.311,0.027
			c-1.645-0.001-3.288-0.138-4.903-0.45c-4.435-0.912-8.186-2.68-10.362-6.867c-3.109-6.51-1.254-14.595,2.873-20.239
			c3.168-4.114,8.207-6.876,13.457-6.761c3.522,0.209,7.002,1.184,10.231,2.583c5.488,2.55,9.905,7.753,10.607,13.87
			c0.426,3.154-0.208,6.397-1.492,9.287c-2.389,5.836-8.096,8.803-14.088,8.805C323.974,322.891,323.126,322.831,322.28,322.713z"/>
		<path style="fill:#F2B7B7;" d="M326.84,342.002c2.161-10.456,13.05-14.764,22.68-11.894c6.295,1.556,12.612,5.797,14.206,12.408
			c1.335,5.525-0.571,12.122-5.702,15.035c-2.452,1.417-5.354,1.851-8.154,1.76c-3.029,0.691-6.199,0.673-9.296,0.707
			c-0.228,0.005-0.454,0.007-0.677,0.007C327.759,360.024,324.234,353.626,326.84,342.002z"/>
	</g>
	<path style="fill:#F2B7B7;" d="M173.704,38.346c0.223,11.236-5.49,22.333-14.431,29.062c-8.406,7.623-46.425,21.25-30.528,35.881
		c9.765,7.283,22.547,12.868,26.245,25.537c4.31,13.18-4.295,27.622-16.971,32.169c-5.992,2.568-12.546,2.484-18.941,2.356
		c-14.897-1.113-28.538,6.456-39.095,16.398c-8.515,7.759-17.611,25.651-31.118,16.736c-7.783-5.76-9.346-16.225-10.56-25.215
		c-1.759-12.936,1.707-25.564,4.027-38.172c0.974-5.761,0.91-11.81-1.39-17.251c-3.096-5.822-6.695-11.422-11.349-16.126
		c-4.63-4.886-7.415-11.336-7.645-18.078c-0.596-10.104,3.758-19.515,8.939-27.908c7.361-14.62,21.331-26.707,38.232-27.432
		c16.444-0.82,25.75,10.013,42.753,2.078c10.161-4.32,19.145-11.92,30.51-12.903c12.164-1.333,25.775,5.68,30.052,17.238
		C173.09,34.491,173.526,36.371,173.704,38.346z"/>
	<path style="fill:#586568;" d="M315.527,419.958c3.237-3.943,8.75-5.35,13.615-4.156c4.101,0.064,20.251,9.959,20.253,2.855
		c0.257-10.447,3.934-19.443,16.099-15.389c3.347,1.239,6.242,3.337,9.237,5.213c2.143,1.452,5.42,2.589,6.843-0.37
		c1.318-2.408,1.747-5.202,3.107-7.595c3.198-6.369,11.414-7.732,17.365-4.515c3.055,1.405,5.583,3.659,7.921,6.033
		c1.286,1.309,2.511,2.686,3.928,3.855c1.267,1.266,1.911,0.862,2.695-0.59c1.914-3.523,2.84-7.495,4.834-10.986
		c3.004-6.021,9.958-9.293,16.539-8.395c19.653,3.936,26.941,28.34,22.635,45.867c-4.627,21.89-25.236,34.939-43.978,44.198
		c-21.068,10.638-46.514,16.586-69.035,6.907c-15.065-6.014-28.54-17.681-33.779-33.357c-2.3-7.076-3.699-15.49-1.589-22.807
		C312.911,424.324,313.983,422.039,315.527,419.958z"/>
</g>
</svg>
